<?xml version="1.0" encoding="iso-8859-1"?>
<!-- Generator: Adobe Illustrator 18.1.1, SVG Export Plug-In . SVG Version: 6.00 Build 0)  -->
<svg version="1.1" id="&#x30B0;&#x30EB;&#x30FC;&#x30D7;_1"
	 xmlns="http://www.w3.org/2000/svg" xmlns:xlink="http://www.w3.org/1999/xlink" x="0px" y="0px" viewBox="0 0 18 18"
	 style="enable-background:new 0 0 18 18;" xml:space="preserve">
<rect style="fill:#E60012;" width="18" height="18"/>
<path id="&#x89D2;&#x4E38;&#x9577;&#x65B9;&#x5F62;_19" style="fill:#FFFFFF;" d="M5.5,8.5h7C12.8,8.5,13,8.7,13,9l0,0
	c0,0.3-0.2,0.5-0.5,0.5h-7C5.2,9.5,5,9.3,5,9l0,0C5,8.7,5.2,8.5,5.5,8.5z"/>
<path id="&#x89D2;&#x4E38;&#x9577;&#x65B9;&#x5F62;_19-2" style="fill:#FFFFFF;" d="M9,5L9,5c0.3,0,0.5,0.2,0.5,0.5v7
	C9.5,12.8,9.3,13,9,13l0,0c-0.3,0-0.5-0.2-0.5-0.5v-7C8.5,5.2,8.7,5,9,5z"/>
</svg>
