<?xml version="1.0" encoding="utf-8"?>
<!-- Generator: Adobe Illustrator 22.1.0, SVG Export Plug-In . SVG Version: 6.00 Build 0)  -->
<svg version="1.1" id="图层_1" xmlns="http://www.w3.org/2000/svg" xmlns:xlink="http://www.w3.org/1999/xlink" x="0px" y="0px"
	 viewBox="0 0 250 150" style="enable-background:new 0 0 250 150;" xml:space="preserve">
<style type="text/css">
	.st0{fill:#FFFFFF;}
	.st1{fill:#D71518;}
</style>
<path class="st0" d="M14,146.5c-5.8,0-10.5-4.7-10.5-10.5V14C3.5,8.2,8.2,3.5,14,3.5h222c5.8,0,10.5,4.7,10.5,10.5v122
	c0,5.8-4.7,10.5-10.5,10.5H14z"/>
<path class="st1" d="M143.5,40.7h2.7c-0.1-1.3-0.1-2.4-0.1-3.3V28c0.6-1.1,1.2-2,1.7-2.9c-0.9-0.2-1.8-0.6-2.9-1.2
	c-0.4,1.5-1.1,3-2,4.5c-1,1.4-2,2.6-3,3.5c0.9,0.5,1.5,1.1,2,1.9c0.8-0.8,1.3-1.5,1.7-2.2v5.8C143.6,38.3,143.6,39.4,143.5,40.7z
	 M146.4,49.3c0.1,0.9,1.3,1.4,3.5,1.5h7.7c1.1,0.1,1.9-0.1,2.4-0.7c0.5-0.6,1.1-1.6,1.8-3c-1-0.3-1.9-0.7-2.7-1.3
	c-0.3,1.4-0.5,2.3-0.7,2.5s-0.6,0.3-1.2,0.4h-5.6c-1.6,0-2.5-0.2-2.5-0.7s-0.1-1.1-0.1-1.9c0-0.9,0-2,0.1-3.5h-2.7
	c0.1,1.6,0.1,2.9,0.1,3.9C146.3,47.4,146.3,48.4,146.4,49.3z M167.2,48.1c-0.8-1.4-2.1-3.3-3.9-5.6c-0.7,0.4-1.4,0.9-2.2,1.6
	c1.6,1.9,2.9,3.7,3.8,5.3C165.6,48.8,166.3,48.4,167.2,48.1z M96.7,21c-0.9-0.5-1.7-1-2.5-1.4c-0.9,1.7-1.7,3-2.6,3.9
	c0.7,0.4,1.5,1,2.5,1.7C95,23.6,95.9,22.2,96.7,21z M151.4,42.6c1.3,1.4,2.5,2.6,3.5,3.8c0.7-0.6,1.3-1.1,2-1.6
	c-0.8-0.9-2-2.2-3.6-3.9C152.6,41.6,152,42.2,151.4,42.6z M151.2,24.2c-0.6,1.4-1.3,2.7-2.1,4.1s-1.8,2.6-2.8,3.7
	c0.7,0.3,1.4,0.8,2.2,1.6c0.6-0.8,1-1.4,1.3-2c0,4.5,0,7.6-0.1,9.3h2.5v-0.7h8.8c1.3,0,2.7,0,4.3,0.1V38c-1.6,0.1-3.1,0.1-4.3,0.1
	h-2.3v-1.7c2.4,0,4.2,0,5.3,0.1v-2.3c-1.4,0.1-3.1,0.1-5.3,0.1v-1.7c2.4,0,4.2,0,5.3,0.1v-2c-1.4,0.1-3.1,0.1-5.3,0.1v-1.9
	c2.4,0,4.3,0,5.8,0.1v-2.2c-1.4,0.1-3.6,0.1-6.4,0.1c0.5-0.3,1-0.5,1.6-0.7c-0.7-0.9-1.4-1.7-2.2-2.5c-0.7,0.5-1.3,0.9-1.9,1.2
	c0.9,0.9,1.4,1.5,1.7,2h-4.8c0.4-0.5,0.8-1,1.3-1.4C152.7,25,151.8,24.6,151.2,24.2z M156.2,38.1H152v-1.7h4.2V38.1z M156.2,34.3
	H152v-1.7h4.2V34.3z M156.2,29v1.9H152V29H156.2z M85,49c2.8-0.4,6.4-0.9,10.6-1.4c0-0.8,0-1.6,0.1-2.5c-4,0.6-6.4,0.9-7.2,1v-3.6
	h2.2c1.2,0,2.2,0,3,0.1v-2.5c-1.2,0.1-2.2,0.1-3,0.1h-2.2v-3.3h3c0.6,0,1.7,0,3.5,0.1v-2.2c-1.4,0.1-2.7,0.1-3.9,0.1
	c0.8-1.7,1.5-3.2,2.3-4.5c-1-0.5-2-0.8-3-1c-0.5,1.9-1.1,3.8-1.7,5.5h-5.2c0.6-0.5,1.3-0.9,2.3-1.3c-0.6-1.2-1.4-2.5-2.3-4
	c-0.8,0.6-1.5,1-2.3,1.3c0.9,1.4,1.5,2.7,2,4h-0.7c-0.6,0-1.7,0-3.3-0.1v2.5c1.6-0.1,2.7-0.1,3.3-0.1H86v3.3h-3
	c-0.6,0-1.3,0-2.2-0.1v2.5c0.8-0.1,1.5-0.1,2.3-0.1H86v3.9c-1.5,0.2-4.3,0.5-8.2,0.9c0.4,1,0.7,2,1,3C80.1,49.9,82.2,49.4,85,49z
	 M144.1,43.2c-0.7-0.1-1.4-0.3-2.3-0.6c-0.7,3-1.4,5.1-2.3,6.2c0.7,0.4,1.4,0.8,2.3,1.3C142.7,48.4,143.5,46,144.1,43.2z
	 M139.7,23.6h18.8c2.3,0,4.7,0,7.1,0.1v-2.5c-2.4,0.1-4.8,0.1-7.1,0.1h-6.6c0.8-0.4,1.5-0.8,2.2-1.2c-0.5-0.7-1.2-1.7-2-3
	c-0.9,0.6-1.6,1.1-2.3,1.4c0.6,0.7,1.2,1.6,1.9,2.7H137c0.2,2.3,0.3,5.4,0.3,9.4c0,3.9-0.1,6.6-0.4,8.2c-0.2,1.6-0.6,3.2-1.2,4.8
	c-0.5,1.5-1.3,3-2.2,4.3c1.1,0.3,1.9,0.8,2.5,1.6c1.3-1.8,2.1-3.7,2.6-5.5s0.8-3.8,1-5.9C139.6,36.4,139.7,31.4,139.7,23.6z
	 M202.5,82.6h10.2v-9.5h-32l6.9-3.6c-1.8-3.9-4.4-8.2-7.7-12.7l-11.1,3.8c2,3.7,3.8,7.9,5.4,12.4h-29.1v9.5h9.1
	c3.2,10.6,8.6,20.1,15.9,28.5c-8.1,5.4-17.6,9.1-28.5,11.1l6.5,10.2c11.4-3.2,21.4-7.8,29.8-13.7c8.8,7.2,20.1,11.7,34,13.4
	l3.5-11.6c-11.6-1.3-21.2-4.3-28.8-9C193.8,104.4,199.1,94.7,202.5,82.6z M165.6,82.6h24.9c-2.6,9.1-6.6,16.5-12.1,22.1
	C173.3,99.2,169,91.8,165.6,82.6z M102.3,38.2c-1.1-2-2.2-4.1-3.3-6.2c-0.9,0.5-1.8,1-2.7,1.4c1.4,2.3,2.6,4.4,3.3,6.2
	C100.6,39.2,101.5,38.7,102.3,38.2z M82.5,23.9c-0.9-1.5-1.6-2.8-2.3-3.9c-0.8,0.4-1.6,0.8-2.5,1.3c1.3,1.6,2,3,2.3,4
	C80.9,24.9,81.7,24.4,82.5,23.9z M106.9,26.1v-4c0-1.4,0-2.7,0.1-3.9h-3.2c0.1,1.2,0.1,2.4,0.1,3.8v4.2h-3.2c-0.7,0-2.1,0-4.2-0.1
	v2.7c2.1-0.1,3.6-0.1,4.3-0.1h3v18.6c0,0.4-0.5,0.6-1.4,0.7c-0.9,0-2,0-3.1-0.1c0.7,1.2,1.1,2.4,1.3,3.6c1.5-0.2,3-0.5,4.3-0.9
	s1.9-1.3,1.8-2.6V28.6h2.2c0.9,0,1.8,0,2.7,0.1V26c-1.3,0.1-2.3,0.1-3,0.1L106.9,26.1L106.9,26.1z M83.2,27h-1.3
	c-0.7,0-1.8,0-3.3-0.1v2.5c1.4-0.1,2.6-0.1,3.3-0.1h11c0.8,0,1.7,0,2.7,0.1v-2.6c-1.1,0.1-2,0.1-2.7,0.1H91v-5.6
	c0-1.3,0-2.6,0.1-3.8h-2.9c0.1,1.2,0.1,2.4,0.1,3.8v5.6h-2.5v-5.1c0-1.6,0-3,0.1-4.2h-3C83,18.8,83,20,83,21.2V27H83.2z M75.2,57.5
	H64v12.4H36.6v36.6H64v26.1h11.2v-26.1h28.5V69.9H75.2V57.5z M64,97.1H47.4V79.5H64V97.1z M92.8,79.5v17.6H75.2V79.5H92.8z M236,0
	H14C6.3,0,0,6.3,0,14v122c0,7.7,6.3,14,14,14h222c7.7,0,14-6.3,14-14V14C250,6.3,243.7,0,236,0z M243,136c0,3.9-3.1,7-7,7H14
	c-3.9,0-7-3.1-7-7V14c0-3.9,3.1-7,7-7h222c3.9,0,7,3.1,7,7V136z"/>
</svg>
