<?xml version="1.0" encoding="utf-8"?>
<svg version="1.1" xmlns="http://www.w3.org/2000/svg" xmlns:xlink="http://www.w3.org/1999/xlink" x="0px" y="0px" width="60px" height="60px" viewBox="0 0 60 60" style="enable-background:new 0 0 60 60;" xml:space="preserve">
<style type="text/css">
	.st0{fill:#e60012;}
</style>
<path class="st0" d="M39,27.7c0,0-9.6-9.6-10.9-10.8c-1.4-1.2-3.6-1.2-5,0c-0.1,0.1-0.2,0.2-0.4,0.4c-1.1,1.3-0.9,3.1,0.4,4.2
	l8.6,8.5l-8.6,8.5c-0.1,0.1-0.2,0.2-0.4,0.4c-1.1,1.3-0.9,3.1,0.4,4.2c1.4,1.2,3.6,1.2,5,0C29.4,41.9,39,32.3,39,32.3
	c0.1-0.1,0.2-0.1,0.2-0.2C40.4,30.8,40.2,28.9,39,27.7z"/>
</svg>
