<?xml version="1.0" encoding="utf-8"?>
<svg version="1.1" xmlns="http://www.w3.org/2000/svg" xmlns:xlink="http://www.w3.org/1999/xlink" x="0px" y="0px" width="60px" height="60px" viewBox="0 0 60 60" style="enable-background:new 0 0 60 60;" xml:space="preserve">
<style type="text/css">
	.st0{fill:#e60012;}
</style>
<path class="st0" d="M0,0v60h60V0H0z M39.2,32.1c0,0.1-0.1,0.1-0.2,0.2c0,0-9.6,9.6-10.9,10.8c-1.4,1.2-3.6,1.2-5,0
	c-1.3-1.1-1.5-2.9-0.4-4.2c0.2-0.2,0.3-0.3,0.4-0.4l8.6-8.5l-8.6-8.5c-1.3-1.1-1.5-2.9-0.4-4.2c0.2-0.2,0.3-0.3,0.4-0.4
	c1.4-1.2,3.6-1.2,5,0C29.4,18.1,39,27.7,39,27.7C40.2,28.9,40.4,30.8,39.2,32.1z"/>
</svg>
